# xmcd CD database file
#
# Track frame offsets:
#	150
#	12197
#	23686
#	37962
#	47390
#	65817
#	76944
#	89743
#	99003
#	110687
#	127108
#
# Disc length: 1826 seconds
#
# Revision: 2
# Processed by: cddbd v1.5.2PL0 Copyright (c) Steve Scherf et al.
# Submitted via: CDex 1.51
#
DISCID=8307200b
DTITLE=Jimmy Reed - Now Appearing
DYEAR=1900
DGENRE=Blues
TTITLE0=Close Together
TTITLE1=Got Me Chasing You 
TTITLE2=Wanta Be With You
TTITLE3=Jimmy's  Rock
TTITLE4=Tell The World I Do 
TTITLE5=You Know You're Looking Good
TTITLE6=I' ve Got The Blues
TTITLE7=Laughing At The Blues 
TTITLE8=Down The Road
TTITLE9=Ain't Gonna Cry No More
TTITLE10=You're My Baby
EXTD=
EXTT0=
EXTT1=
EXTT2=
EXTT3=
EXTT4=
EXTT5=
EXTT6=
EXTT7=
EXTT8=
EXTT9=
EXTT10=
PLAYORDER=
